<svg width="384px" height="60px" x="0px" y="0px" viewBox="0 0 384 60" xmlns="http://www.w3.org/2000/svg" version="1.1" style="transform: translate(0,0)">
<rect x="0" y="0" width="384" height="60" style="fill:#ffffff;"></rect>
<g transform="translate(0, 0)" style="fill:#000000;">
<rect x="0" y="0" width="2" height="60"></rect><rect x="8" y="0" width="2" height="60">
</rect><rect x="12" y="0" width="4" height="60"></rect>
<rect x="20" y="0" width="6" height="60"></rect><rect x="28" y="0" width="2" height="60">
</rect><rect x="32" y="0" width="6" height="60"></rect><rect x="40" y="0" width="2" height="60">
</rect><rect x="48" y="0" width="2" height="60"></rect><rect x="52" y="0" width="2" height="60"></rect><rect x="56" y="0" width="6" height="60"></rect><rect x="64" y="0" width="2" height="60"></rect><rect x="68" y="0" width="6" height="60"></rect><rect x="80" y="0" width="2" height="60"></rect><rect x="84" y="0" width="2" height="60"></rect><rect x="88" y="0" width="6" height="60"></rect><rect x="96" y="0" width="6" height="60"></rect><rect x="104" y="0" width="6" height="60"></rect><rect x="116" y="0" width="2" height="60"></rect><rect x="120" y="0" width="2" height="60"></rect><rect x="124" y="0" width="2" height="60"></rect><rect x="128" y="0" width="2" height="60"></rect><rect x="132" y="0" width="2" height="60"></rect><rect x="140" y="0" width="6" height="60"></rect><rect x="148" y="0" width="2" height="60"></rect><rect x="152" y="0" width="6" height="60"></rect><rect x="160" y="0" width="6" height="60"></rect><rect x="168" y="0" width="2" height="60"></rect><rect x="176" y="0" width="6" height="60"></rect><rect x="184" y="0" width="2" height="60"></rect><rect x="188" y="0" width="2" height="60"></rect><rect x="192" y="0" width="2" height="60"></rect><rect x="196" y="0" width="6" height="60"></rect><rect x="208" y="0" width="6" height="60"></rect><rect x="216" y="0" width="2" height="60"></rect><rect x="220" y="0" width="2" height="60"></rect><rect x="224" y="0" width="2" height="60"></rect><rect x="228" y="0" width="2" height="60"></rect><rect x="236" y="0" width="2" height="60"></rect><rect x="240" y="0" width="6" height="60"></rect><rect x="248" y="0" width="6" height="60"></rect><rect x="256" y="0" width="6" height="60"></rect><rect x="264" y="0" width="2" height="60"></rect><rect x="272" y="0" width="2" height="60"></rect><rect x="276" y="0" width="6" height="60"></rect><rect x="284" y="0" width="2" height="60"></rect><rect x="288" y="0" width="2" height="60"></rect><rect x="292" y="0" width="6" height="60"></rect><rect x="304" y="0" width="2" height="60"></rect><rect x="308" y="0" width="6" height="60"></rect><rect x="316" y="0" width="2" height="60"></rect><rect x="320" y="0" width="2" height="60"></rect><rect x="324" y="0" width="2" height="60"></rect><rect x="332" y="0" width="6" height="60"></rect><rect x="340" y="0" width="6" height="60"></rect><rect x="348" y="0" width="2" height="60"></rect><rect x="352" y="0" width="2" height="60"></rect><rect x="360" y="0" width="2" height="60"></rect><rect x="364" y="0" width="6" height="60"></rect><rect x="372" y="0" width="6" height="60"></rect><rect x="380" y="0" width="2" height="60"></rect></g></svg>