<svg class="icon" width="16px" height="16px" viewBox="0 0 20 20" version="1.1" xmlns="http://www.w3.org/2000/svg">
    <g id="icon/机器人" stroke="none" stroke-width="1" fill-rule="evenodd">
        <path d="M10,1 C11.1045695,1 12,1.8954305 12,3 C12,3.7398375 11.5982846,4.38584934 11.0010775,4.73181186 L11,6 L17,6 C17.5522847,6 18,6.44771525 18,7 L18,17 C18,17.5522847 17.5522847,18 17,18 L3,18 C2.44771525,18 2,17.5522847 2,17 L2,7 C2,6.44771525 2.44771525,6 3,6 L9,6 L8.99992752,4.73239368 C8.40216612,4.38657394 8,3.74025244 8,3 C8,1.8954305 8.8954305,1 10,1 Z M7,10 L6,10 C5.48716416,10 5.06449284,10.3860402 5.00672773,10.8833789 L5,11 L5,12 C5,12.5128358 5.38604019,12.9355072 5.88337887,12.9932723 L6,13 L7,13 C7.51283584,13 7.93550716,12.6139598 7.99327227,12.1166211 L8,12 L8,11 C8,10.4477153 7.55228475,10 7,10 Z M14,10 L13,10 C12.4871642,10 12.0644928,10.3860402 12.0067277,10.8833789 L12,11 L12,12 C12,12.5128358 12.3860402,12.9355072 12.8833789,12.9932723 L13,13 L14,13 C14.5128358,13 14.9355072,12.6139598 14.9932723,12.1166211 L15,12 L15,11 C15,10.4477153 14.5522847,10 14,10 Z"></path>
        <path d="M1,9 L1,9 L1,9 L1,14 C0.44771525,14 6.76353751e-17,13.5522847 0,13 L0,10 C-6.76353751e-17,9.44771525 0.44771525,9 1,9 Z"></path>
        <path d="M19,9 C19.5522847,9 20,9.44771525 20,10 L20,13 C20,13.5522847 19.5522847,14 19,14 L19,14 L19,14 L19,9 Z"></path>
    </g>
</svg>