
<svg
    class="imicon imicon-emoji "
    width="20px"
    height="20.00px"
    viewBox="0 0 1024 1024"
    version="1.1"
    xmlns="http://www.w3.org/2000/svg"
>
    <path
        d="M512 953.81818174c244.02272695 0 441.81818174-197.79545479 441.81818174-441.81818174C953.81818174 267.97727305 756.02272695 70.18181826 512 70.18181826 267.97727305 70.18181826 70.18181826 267.97727305 70.18181826 512c0 244.02272695 197.79545479 441.81818174 441.81818174 441.81818174z m0-65.45454522a376.36363653 376.36363653 0 1 1 0-752.72727305 376.36363653 376.36363653 0 0 1 0 752.72727305z"
        fill="#646566"
    />
    <path
        d="M296 671.50454521a305.46818174 305.46818174 0 0 0 432 0 32.72727305 32.72727305 0 1 0-46.30909131-46.26818173 240.01363652 240.01363652 0 0 1-339.38181738 0 32.72727305 32.72727305 0 1 0-46.30909131 46.26818173z"
        fill="#646566"
    />
    <path
        d="M358.59090869 426.78636347m-51.13636348 0a51.13636347 51.13636347 0 1 0 102.27272784 0 51.13636347 51.13636347 0 1 0-102.27272784 0Z"
        fill="#646566"
    />
    <path
        d="M665.40909131 426.78636347m-51.13636436 0a51.13636347 51.13636347 0 1 0 102.27272784 0 51.13636347 51.13636347 0 1 0-102.27272784 0Z"
        fill="#646566"
    />
</svg>