<svg class="icon" viewBox="0 0 16 16" version="1.1" xmlns="http://www.w3.org/2000/svg">
    <path d="M8,1 C11.8659932,1 15,4.13400675 15,8 C15,11.8659932 11.8659932,15 8,15 C4.13400675,15 1,11.8659932 1,8 C1,4.13400675 4.13400675,1 8,1 Z M8,3.52237937 C7.72385763,3.52237937 7.5,3.74623699 7.5,4.02237937 L7.5,8 C7.5,8.27614237 7.72385763,8.5 8,8.5 L12.0315497,8.5 C12.307692,8.5 12.5315497,8.27614237 12.5315497,8 C12.5315497,7.72385763 12.307692,7.5 12.0315497,7.5 L8.5,7.5 L8.5,4.02237937 C8.5,3.74623699 8.27614237,3.52237937 8,3.52237937 Z"></path>
</svg>