<svg class="icon" viewBox="0 0 16 16" version="1.1" xmlns="http://www.w3.org/2000/svg">
    <path d="M15,15 L15,14.4999947 L15,13.9998893 C15,12.7460942 14.2475999,12.2303561 12.2396542,11.4915431 C12.1979183,11.4761905 12.1979183,11.4761905 12.1563266,11.4608934 C10.615672,10.8941524 10.134,10.5709259 10.134,10.0109471 C10.134,9.85033683 10.135152,9.73948369 10.1399578,9.36943328 L9.64,9.36294026 L9.99422875,9.71582073 C10.537219,9.17074431 11.0039872,8.474988 11.2211263,7.63390879 L10.737,7.50892061 L10.9311987,7.96967147 C11.304143,7.81247842 11.597438,7.49003967 11.7712457,7.06851727 C12.0379784,6.41816457 11.9853098,5.64517822 11.539723,5.11514523 L11.6534557,5.49632768 C11.6625696,5.4202102 11.6625696,5.4202102 11.6728874,5.32771427 C11.7432573,4.67527457 11.7313908,4.09718867 11.5702594,3.50683356 C11.4280063,2.98564503 11.1766942,2.52526017 10.7979938,2.14775172 C10.0997813,1.45080807 9.13707784,1.02714306 8.02318008,1 C6.88452433,1.02712733 5.92305709,1.45024832 5.22309355,2.14766464 C4.83927108,2.53068205 4.58665962,2.99831315 4.44573142,3.52833115 C4.2893315,4.11653688 4.27926169,4.69084412 4.35013328,5.34736674 C4.36037911,5.43933063 4.36037911,5.43933063 4.3695034,5.51598523 L4.49282646,5.12411687 C4.0347745,5.63777595 3.98022416,6.41378198 4.2483965,7.06764732 C4.4247009,7.4918984 4.71477272,7.81286438 5.08680128,7.96967147 L5.281,7.50892061 L4.79671361,7.63328709 C5.01322258,8.47639663 5.48172526,9.17777034 6.02044661,9.71649739 L6.374,9.36294026 L5.8740418,9.3694053 C5.87541099,9.47529042 5.87471649,9.55880486 5.87190578,9.72770566 C5.87035421,9.82022781 5.87035421,9.82022781 5.86931096,9.91462196 C5.8690577,9.9510369 5.8690577,9.9510369 5.869,9.98794688 C5.869,10.5686466 5.38571392,10.8835376 3.81025574,11.4322764 C3.79015867,11.439276 3.79015867,11.439276 3.77002907,11.4462872 C1.74327905,12.1522648 1,12.6421919 1,13.8939883 L1,14.4999947 L1,15 L1.5,15 L14.5,15 L15,15 Z"></path>
</svg>