
<svg class="icon" viewBox="0 0 1024 1024" version="1.1" xmlns="http://www.w3.org/2000/svg">
    <path
        d="M945.186 877.773l-159.6-156.695c50.831-67.312 81.346-150.83 81.346-241.689 0-221.93-179.87-401.845-401.844-401.845-221.951 0-401.845 179.916-401.845 401.845 0 221.975 179.893 401.869 401.845 401.869 102.262 0 195.337-38.526 266.251-101.432L891.17 936.728c15.698 15.42 40.514 14.774 55.45-1.477 14.887-16.25 14.264-42.013-1.434-57.478z m-480.074-67.407c-182.778 0-330.93-148.176-330.93-330.954 0-182.756 148.152-330.931 330.93-330.931 182.757 0 330.932 148.175 330.932 330.93-0.001 182.78-148.176 330.955-330.932 330.955z"
        fill="#aaa"
    />
</svg>