<svg width="16px" height="16px" viewBox="0 0 16 16">
    <path
        d="M7.99984211,12 C5.79035479,12 4,10.2084431 4,8.00005263 C4,5.79164112 5.79035479,4 7.99984211,4 C10.2096663,4 12,5.79164112 12,8.00005263 C12,10.2084431 10.2096663,12 7.99984211,12 M14.5796033,9.46833454 L14.2901916,9.31716684 C13.8379566,9.05338966 13.5327506,8.5627926 13.5327506,7.99990134 C13.5327506,7.43798624 13.8369609,6.94717443 14.2892155,6.68253823 L14.5795447,6.53062865 C14.8816855,6.37268642 15.0445089,6.01898564 14.9893754,5.69021592 C14.9324849,5.51886129 14.8695616,5.34955659 14.8007815,5.1826142 C14.7313765,5.01582799 14.6562513,4.85148217 14.575562,4.68981102 C14.3820873,4.41824411 14.0167889,4.28302682 13.6909275,4.38560141 L13.3788689,4.48343188 C12.8713247,4.61667733 12.309506,4.48534515 11.9114868,4.08740493 C11.5136434,3.6895428 11.3822328,3.12772531 11.5155371,2.62111928 L11.6133092,2.30911993 C11.7160402,1.98433292 11.5807445,1.6189573 11.3091771,1.42448727 C11.1477203,1.343271 10.9833741,1.26814595 10.8163728,1.19928782 C10.6495863,1.13011733 10.4802812,1.06719424 10.3088481,1.01069426 C9.97992151,0.955326627 9.62545857,1.11836439 9.46851169,1.42060217 L9.31734367,1.71001324 C9.05280452,2.1633211 8.56197214,2.46737452 8,2.46737452 C7.43817859,2.46737452 6.9474243,2.16308682 6.68286563,1.71001324 L6.53171713,1.42060217 C6.37377457,1.11836439 6.02022922,0.955619474 5.69145879,1.01069426 C5.51963524,1.06688187 5.35001782,1.12951211 5.18286031,1.19844833 C5.01607374,1.26777501 4.85172758,1.34288054 4.69005609,1.42349159 C4.41848859,1.61803971 4.28327101,1.98333724 4.38592392,2.3094323 L4.48369602,2.62135355 C4.61700033,3.12901384 4.48459409,3.69077275 4.0876487,4.0876392 C3.69070331,4.48550133 3.12880654,4.61697018 2.62135993,4.48466184 L2.30830566,4.38581617 C1.98334226,4.28302682 1.61804395,4.41838077 1.4244911,4.68996721 C1.34304037,4.85132599 1.26793468,5.0156718 1.19929116,5.18284848 C1.13012052,5.34963469 1.0671973,5.51893938 1.0106972,5.69045019 C0.95532945,6.02035226 1.118309,6.3737602 1.4204498,6.53170242 L1.70986149,6.68269441 C2.16309222,6.94733061 2.46722439,7.43806433 2.46722439,7.99997943 C2.46722439,8.56187501 2.16309222,9.05171067 1.71085717,9.31632735 L1.42060598,9.4684712 C1.11836756,9.62633533 0.955563729,9.97997755 1.01077529,10.3088058 C1.06706064,10.4787158 1.13019861,10.648489 1.19929116,10.8163295 C1.26877418,10.9830376 1.34387987,11.1473834 1.4244911,11.3090741 C1.61804395,11.5807191 1.98334226,11.7159364 2.30922325,11.6132837 L2.62028615,11.5155899 C3.12788895,11.3822859 3.69078141,11.5136766 4.0876487,11.9116168 C4.48467218,12.3085614 4.61700033,12.870457 4.48467218,13.377063 L4.38584582,13.6909756 C4.28411051,14.0157626 4.4184105,14.380982 4.69005609,14.5755302 C4.84997049,14.655536 5.01394572,14.7315591 5.18286031,14.8008077 C5.34964688,14.8699782 5.51895193,14.9329013 5.69038502,14.9893232 C6.01923354,15.0446322 6.37377457,14.881653 6.53072145,14.5793372 L6.68179185,14.2899261 C6.94635052,13.8377701 7.437261,13.5325648 8,13.5325648 C8.56189405,13.5325648 9.05173075,13.8369306 9.3164456,14.2880324 L9.46851169,14.5793372 C9.62637616,14.881575 9.9799996,15.044398 10.3088481,14.9893232 C10.4787584,14.9331941 10.6485125,14.869822 10.8164509,14.8008077 C10.9831594,14.7312663 11.1475056,14.6561412 11.3091771,14.5755302 C11.5807445,14.3820558 11.7159621,14.0167583 11.6133873,13.6909756 L11.5155371,13.3797377 C11.3823109,12.872214 11.5136434,12.3095571 11.9115649,11.9116168 C12.3085103,11.5145161 12.8704266,11.3822859 13.3768775,11.5155899 L13.6900099,11.6144941 C14.0148171,11.7161511 14.3802716,11.5817733 14.5747225,11.3102064 C14.6558804,11.1488476 14.7309861,10.9845018 14.7998639,10.8174813 C14.8691126,10.6506951 14.9319382,10.4813904 14.9884578,10.3098015 C15.0446651,9.97974327 14.8817636,9.62625724 14.5796033,9.46833454"></path>
</svg>
