<svg width="16px" height="16px" viewBox="0 0 16 16" fill="#666">
    <path
        d="M13.7515625,2.40625 L2.2484375,2.40625 C1.865625,2.40625 1.6265625,2.8234375 1.81875,3.15625 L5.453125,9.334375 L5.453125,13.09375 C5.453125,13.3703125 5.675,13.59375 5.95,13.59375 L10.05,13.59375 C10.325,13.59375 10.546875,13.3703125 10.546875,13.09375 L10.546875,9.334375 L14.1828125,3.15625 C14.3734375,2.8234375 14.134375,2.40625 13.7515625,2.40625 Z M6.571875,12.46875 L6.571875,9.02993774 L9.4296875,9.02993774 L9.4296875,12.46875 L6.571875,12.46875 Z M9.578125,8.771875 L9.4296875,9.03125 L6.5703125,9.03125 L6.421875,8.771875 L3.3234375,3.53125 L12.6765625,3.53125 L9.578125,8.771875 Z"
    ></path>
</svg>