<?xml version="1.0" standalone="no"?><!DOCTYPE svg PUBLIC "-//W3C//DTD SVG 1.1//EN" "http://www.w3.org/Graphics/SVG/1.1/DTD/svg11.dtd"><svg t="1747795276016" class="icon" viewBox="0 0 1024 1024" version="1.1" xmlns="http://www.w3.org/2000/svg" p-id="8253" width="48" height="48" xmlns:xlink="http://www.w3.org/1999/xlink"><path d="M927.38461573 165.84615371h-69.23076944V96.61538427a34.61538427 34.61538427 0 0 0-69.23076944 1e-8v69.23076943h-69.23076943a34.61538427 34.61538427 0 0 0 0 69.23076944h69.23076943v69.23076943a34.61538427 34.61538427 0 0 0 69.23076944 0v-69.23076943h69.23076943a34.61538427 34.61538427 0 0 0 1e-8-69.23076944z" fill="#999999" p-id="8254"></path><path d="M679.88461573 500.75L413.23798057 311.01442315A16.875 16.875 0 0 0 386.51923057 324.86057685v379.36298057a16.875 16.875 0 0 0 26.71875 13.73798144l266.64663516-189.62740458a16.98317315 16.98317315 0 0 0-1e-8-27.58413428z" fill="#999999" p-id="8255"></path><path d="M787.94951943 962H236.05048057C140.10096113 962 62 883.89903887 62 787.94951943V236.05048057C62 140.10096113 140.10096113 62 236.05048057 62H581.23076943a34.61538427 34.61538427 0 0 1 0 69.23076943H236.05048057A104.81971114 104.81971114 0 0 0 131.23076943 236.05048057v551.89903886a104.81971114 104.81971114 0 0 0 104.81971114 104.81971114h551.89903886a104.92788427 104.92788427 0 0 0 104.81971114-104.81971114V442.76923057a34.61538427 34.61538427 0 0 1 69.23076943 0v345.18028886c0 95.94951943-78.10096113 174.05048057-174.05048057 174.05048057z" fill="#999999" p-id="8256"></path></svg>